<svg width="18" height="18" viewBox="0 0 18 18" fill="none" xmlns="http://www.w3.org/2000/svg">
<path d="M9.00001 1.66152L12.6 1.73075C13.5 1.79998 13.9154 1.93844 14.2616 2.00768C14.6769 2.14614 14.9539 2.35383 15.3 2.69998C15.6462 3.04614 15.7846 3.32306 15.9923 3.73844C16.1308 4.0846 16.2692 4.49998 16.2692 5.39998C16.3385 6.36921 16.3385 6.64614 16.3385 8.99998L16.2692 12.6C16.2 13.5 16.0616 13.9154 15.9923 14.2615C15.8539 14.6769 15.6462 14.9538 15.3 15.3C14.9539 15.6461 14.6769 15.7846 14.2616 15.9923C13.9154 16.1308 13.5 16.2692 12.6 16.2692C11.6308 16.3384 11.3539 16.3384 9.00001 16.3384C6.64617 16.3384 6.30001 16.3384 5.40001 16.2692C4.50001 16.2 4.08463 16.0615 3.73848 15.9923C3.32309 15.8538 3.04617 15.6461 2.70001 15.3C2.35386 14.9538 2.2154 14.6769 2.00771 14.2615C1.86924 13.9154 1.73078 13.5 1.73078 12.6C1.66155 11.6308 1.66155 11.3538 1.66155 8.99998L1.73078 5.39998C1.80001 4.49998 1.93848 4.0846 2.00771 3.73844C2.14617 3.32306 2.35386 3.04614 2.70001 2.69998C3.04617 2.35383 3.32309 2.21537 3.73848 2.00768C4.08463 1.86921 4.50001 1.73075 5.40001 1.73075C6.30001 1.66152 6.57694 1.66152 9.00001 1.66152ZM9.00001 0.0692139L5.33078 0.138445C4.36155 0.138445 3.73848 0.276906 3.1154 0.484598C2.56155 0.761522 2.07694 1.03844 1.52309 1.52306C1.03848 2.07691 0.761552 2.56152 0.484629 3.11537C0.276937 3.73844 0.138475 4.36152 0.0692444 5.33075V8.99998L0.138475 12.6692C0.207706 13.6384 0.346167 14.2615 0.55386 14.8154C0.761552 15.4384 1.10771 15.9231 1.59232 16.4077C2.07694 16.8923 2.56155 17.2384 3.18463 17.4461C3.73848 17.6538 4.43078 17.7923 5.33078 17.8615C6.30001 17.9308 6.57694 17.9308 9.00001 17.9308L12.6692 17.8615C13.6385 17.7923 14.2616 17.6538 14.8154 17.4461C15.4385 17.2384 15.9231 16.8923 16.4077 16.4077C16.8923 15.9231 17.2385 15.4384 17.4462 14.8154C17.6539 14.2615 17.7923 13.5692 17.8616 12.6692C17.9308 11.7 17.9308 11.4231 17.9308 8.99998L17.8616 5.33075C17.7923 4.36152 17.6539 3.73844 17.4462 3.1846C17.2385 2.56152 16.8923 2.07691 16.4077 1.59229C15.9231 1.10768 15.4385 0.761522 14.8154 0.553829C14.2616 0.346137 13.5692 0.207675 12.6692 0.138445C11.7692 0.0692139 11.4231 0.0692139 9.00001 0.0692139ZM9.00001 4.43075C6.43847 4.43075 4.43078 6.50768 4.43078 8.99998C4.43078 11.4923 6.50771 13.5692 9.00001 13.5692C11.4923 13.5692 13.5692 11.4923 13.5692 8.99998C13.5692 6.50768 11.5616 4.43075 9.00001 4.43075ZM9.00001 11.9769C7.33847 11.9769 6.02309 10.6615 6.02309 8.99998C6.02309 7.33844 7.33847 6.02306 9.00001 6.02306C10.6616 6.02306 11.9769 7.33844 11.9769 8.99998C11.9769 10.6615 10.6616 11.9769 9.00001 11.9769Z" fill="#555555"/>
<path d="M13.7769 5.33074C14.3887 5.33074 14.8846 4.83481 14.8846 4.22305C14.8846 3.61129 14.3887 3.11536 13.7769 3.11536C13.1652 3.11536 12.6692 3.61129 12.6692 4.22305C12.6692 4.83481 13.1652 5.33074 13.7769 5.33074Z" fill="#555555"/>
</svg>
