<svg width="20" height="19" viewBox="0 0 20 19"  xmlns="http://www.w3.org/2000/svg">
<rect width="5" height="5" transform="matrix(-1 0 0 1 5.5 0)" />
<rect width="5" height="5" transform="matrix(-1 0 0 1 5.5 7)" />
<rect width="5" height="5" transform="matrix(-1 0 0 1 5.5 14)" />
<rect width="5" height="5" transform="matrix(-1 0 0 1 12.5 0)" />
<rect width="5" height="5" transform="matrix(-1 0 0 1 12.5 7)" />
<rect width="5" height="5" transform="matrix(-1 0 0 1 12.5 14)" />
<rect width="5" height="5" transform="matrix(-1 0 0 1 19.5 0)" />
<rect width="5" height="5" transform="matrix(-1 0 0 1 19.5 7)" />
<rect width="5" height="5" transform="matrix(-1 0 0 1 19.5 14)" />
</svg>
